<mxfile host="app.diagrams.net" modified="2023-10-02T15:12:25.231Z" agent="Mozilla/5.0 (Windows NT 10.0; Win64; x64) AppleWebKit/537.36 (KHTML, like Gecko) Chrome/117.0.0.0 Safari/537.36 Edg/117.0.2045.43" etag="q3x6tIGCWw4CmUGSJ0JZ" version="22.0.0" type="github">
  <diagram name="第 1 页" id="RZW_M2-FfQeL8bfxa6uP">
    <mxGraphModel dx="1218" dy="749" grid="1" gridSize="10" guides="1" tooltips="1" connect="1" arrows="1" fold="1" page="1" pageScale="1" pageWidth="827" pageHeight="1169" math="0" shadow="0">
      <root>
        <mxCell id="0" />
        <mxCell id="1" parent="0" />
      </root>
    </mxGraphModel>
  </diagram>
</mxfile>
